<?xml version="1.0" encoding="UTF-8"?>
<svg id="Layer_1" xmlns="http://www.w3.org/2000/svg" viewBox="0 0 500 712.5">
  <defs>
    <style>
      .cls-1 {
        fill: #bcbec0;
      }

      .cls-2 {
        fill: #fff;
      }
    </style>
  </defs>
  <path class="cls-1" d="M230,0v270.51c0,8-6.44,14.49-14.38,14.49H14.38c-7.94,0-14.38-6.49-14.38-14.49v-83.62C0,83.67,82.38,0,184,0h46Z"/>
  <path class="cls-2" d="M500,186.89v83.62c0,8-6.44,14.49-14.38,14.49h-201.25c-7.94,0-14.38-6.49-14.38-14.49V0h46c101.62,0,184,83.67,184,186.89Z"/>
  <path class="cls-2" d="M485,322.5c8.28,0,15,5.63,15,12.58v172.16c0,113.36-111.93,205.26-250,205.26S0,620.6,0,507.24v-172.16c0-6.95,6.72-12.58,15-12.58h470Z"/>
</svg>