<?xml version="1.0" encoding="UTF-8"?>
<svg id="Layer_1" xmlns="http://www.w3.org/2000/svg" viewBox="0 0 500 712.5">
  <defs>
    <style>
      .cls-1 {
        fill: #bcbec0;
      }

      .cls-2 {
        fill: #fff;
      }
    </style>
  </defs>
  <path class="cls-1" d="M240,0v280c0,8.28-6.72,15-15,15H15c-8.28,0-15-6.72-15-15v-86.56C0,86.6,85.96,0,192,0h48Z"/>
  <path class="cls-2" d="M500,193.44v86.56c0,8.28-6.72,15-15,15h-210c-8.28,0-15-6.72-15-15V0h48c106.04,0,192,86.6,192,193.44Z"/>
  <path class="cls-2" d="M485,312.5c8.28,0,15,5.78,15,12.9v176.57c0,116.27-111.93,210.53-250,210.53S0,618.24,0,501.97v-176.57c0-7.13,6.72-12.9,15-12.9h470Z"/>
</svg>