<?xml version="1.0" encoding="UTF-8"?>
<svg id="Layer_1" xmlns="http://www.w3.org/2000/svg" viewBox="0 0 500 712.5">
  <defs>
    <style>
      .cls-1 {
        fill: #bcbec0;
      }

      .cls-2 {
        fill: #231f20;
      }

      .cls-3 {
        fill: #fff;
      }
    </style>
  </defs>
  <g>
    <path class="cls-1" d="M15,290c-5.51,0-10-4.49-10-10v-86.56C5,89.53,88.89,5,192,5h43v275c0,5.51-4.49,10-10,10H15Z"/>
    <path class="cls-2" d="M230,10v270c0,2.76-2.24,5-5,5H15c-2.76,0-5-2.24-5-5v-86.56c0-49.01,18.94-95.09,53.33-129.74C97.7,29.07,143.4,10,192,10h38M240,0h-48C85.96,0,0,86.6,0,193.44v86.56c0,8.28,6.72,15,15,15h210c8.28,0,15-6.72,15-15V0h0Z"/>
  </g>
  <g>
    <path class="cls-3" d="M275,290c-5.51,0-10-4.49-10-10V5h43c103.11,0,187,84.53,187,188.44v86.56c0,5.51-4.49,10-10,10h-210Z"/>
    <path class="cls-2" d="M308,10c48.6,0,94.3,19.07,128.67,53.7,34.39,34.65,53.33,80.73,53.33,129.74v86.56c0,2.76-2.24,5-5,5h-210c-2.76,0-5-2.24-5-5V10h38M308,0h-48v280c0,8.28,6.72,15,15,15h210c8.28,0,15-6.72,15-15v-86.56C500,86.6,414.04,0,308,0h0Z"/>
  </g>
  <g>
    <path class="cls-3" d="M250,707.5c-135.09,0-245-92.2-245-205.53v-176.57c0-4.36,4.49-7.9,10-7.9h470c5.51,0,10,3.55,10,7.9v176.57c0,113.33-109.91,205.53-245,205.53Z"/>
    <path class="cls-2" d="M485,322.5c3.01,0,5,1.75,5,2.9v176.57c0,26.85-6.25,52.91-18.58,77.46-11.98,23.85-29.17,45.3-51.08,63.76-22.04,18.56-47.74,33.15-76.38,43.35-29.74,10.59-61.35,15.96-93.96,15.96s-64.21-5.37-93.96-15.96c-28.64-10.2-54.34-24.78-76.38-43.35-21.92-18.46-39.1-39.91-51.08-63.76-12.33-24.55-18.58-50.61-18.58-77.46v-176.57c0-1.16,1.99-2.9,5-2.9h470M485,312.5H15c-8.28,0-15,5.78-15,12.9v176.57c0,116.27,111.93,210.53,250,210.53s250-94.26,250-210.53v-176.57c0-7.13-6.72-12.9-15-12.9h0Z"/>
  </g>
</svg>